<svg xmlns="http://www.w3.org/2000/svg" width="152.451" height="48.23" viewBox="0 0 152.451 48.23">
  <g id="logo-blue" transform="translate(0 0)">
    <path id="Caminho_7" data-name="Caminho 7" d="M-1245.649,757.669a7.267,7.267,0,0,1-4.043-1.049,10.428,10.428,0,0,1-2.657-2.438v3.075h-4.577V729.869h4.577l-.038,10.88a9.876,9.876,0,0,1,2.7-2.645,7.114,7.114,0,0,1,4.014-1.07,8.948,8.948,0,0,1,3.414.675,8.77,8.77,0,0,1,2.946,1.988,9.929,9.929,0,0,1,2.083,3.227,11.459,11.459,0,0,1,.786,4.389v.075a11.735,11.735,0,0,1-.766,4.39,9.7,9.7,0,0,1-2.059,3.227,8.716,8.716,0,0,1-2.957,1.989,9.048,9.048,0,0,1-3.425.673m-1.035-3.939a5.422,5.422,0,0,0,2.195-.45,5.514,5.514,0,0,0,1.8-1.256,5.885,5.885,0,0,0,1.219-1.99,7.363,7.363,0,0,0,.45-2.646v-.075a7.252,7.252,0,0,0-.45-2.607,6.085,6.085,0,0,0-1.219-2.007,5.365,5.365,0,0,0-1.8-1.275,5.42,5.42,0,0,0-2.195-.451,5.544,5.544,0,0,0-2.214.451,5.377,5.377,0,0,0-1.838,1.294,6.436,6.436,0,0,0-1.258,2.008,6.871,6.871,0,0,0-.468,2.588v.075a7.013,7.013,0,0,0,.468,2.608,6.149,6.149,0,0,0,1.258,2.007,5.487,5.487,0,0,0,1.838,1.276,5.546,5.546,0,0,0,2.214.45" transform="translate(1316.184 -719.673)" fill="#fff"/>
    <rect id="Retângulo_129" data-name="Retângulo 129" width="4.577" height="27.388" transform="translate(89.985 10.196)" fill="#fff"/>
    <path id="Caminho_8" data-name="Caminho 8" d="M-1085.6,776.986a6.591,6.591,0,0,1-5.2-2.063,8.053,8.053,0,0,1-1.832-5.551V756.766h4.577v11.229a5.262,5.262,0,0,0,1.1,3.574,3.9,3.9,0,0,0,3.106,1.253,4.214,4.214,0,0,0,3.2-1.29,5.034,5.034,0,0,0,1.228-3.612V756.766h4.577v19.808h-4.577v-3.108a9.733,9.733,0,0,1-2.432,2.48,6.294,6.294,0,0,1-3.74,1.04" transform="translate(1198.19 -738.99)" fill="#fff"/>
    <path id="Caminho_9" data-name="Caminho 9" d="M-984.083,775.974a10.565,10.565,0,0,1-3.995-.751,9.729,9.729,0,0,1-3.227-2.1,9.762,9.762,0,0,1-2.157-3.246,10.793,10.793,0,0,1-.788-4.184v-.075a11.22,11.22,0,0,1,.714-4.015,10.113,10.113,0,0,1,2.005-3.282,9.469,9.469,0,0,1,3.059-2.213,9.256,9.256,0,0,1,3.9-.807,9.413,9.413,0,0,1,4.144.861,8.542,8.542,0,0,1,2.965,2.327,10.091,10.091,0,0,1,1.781,3.394,13.649,13.649,0,0,1,.6,4.071c0,.2-.007.407-.017.62s-.032.431-.057.657H-989.71a5.789,5.789,0,0,0,1.933,3.734,5.707,5.707,0,0,0,3.77,1.292,6.646,6.646,0,0,0,2.926-.6,9.47,9.47,0,0,0,2.438-1.764l2.663,2.364a10.971,10.971,0,0,1-3.4,2.7,10.188,10.188,0,0,1-4.708,1.013m4.5-11.744a7.775,7.775,0,0,0-.488-2.044,5.252,5.252,0,0,0-1.013-1.65,4.8,4.8,0,0,0-1.519-1.106,4.682,4.682,0,0,0-2.008-.414,4.577,4.577,0,0,0-3.47,1.445,6.519,6.519,0,0,0-1.67,3.769Z" transform="translate(1127.529 -737.94)" fill="#fff"/>
    <path id="Caminho_10" data-name="Caminho 10" d="M-1452.785,731.65c.372-.845,11.009-25.016,14.43-30.719.817-1.361,1.626-2.1,2.277-2.065.844.039,1.734,1.317,2.046,1.948l8.813,21.007c-3.057,1.513-5.468,2.684-5.511,2.705l-.02.01c-.065.033-6.755,3.411-16.4,7.739-4.6,2.063-5.59,1.3-5.689,1.207-.309-.3-.165-1.267.052-1.832" transform="translate(1457.017 -697.406)" fill="#fff"/>
    <path id="Caminho_11" data-name="Caminho 11" d="M-1340.157,782.872l-3.741-8.918c2.165-1.081,4.467-2.245,6.4-3.256,1.569-.821,2.463-.875,2.751-.669s.365.954.313,1.433l-2.662,8.732c-.934,2.509-1.8,2.935-2.127,3a1.229,1.229,0,0,1-.936-.325" transform="translate(1378.648 -748.443)" fill="#fff"/>
    <path id="Caminho_12" data-name="Caminho 12" d="M-1418.986,702.625v30.353a8.939,8.939,0,0,1-8.939,8.939h-30.352a8.939,8.939,0,0,1-8.94-8.939V702.625a8.939,8.939,0,0,1,8.94-8.939h9.711a8.4,8.4,0,0,0-1.958,2.345c-3.54,5.9-14.124,29.976-14.574,31l-.014.034c-.115.287-1.082,2.849.482,4.354a3.379,3.379,0,0,0,2.461.864,15.085,15.085,0,0,0,5.763-1.628c9.534-4.277,16.2-7.641,16.486-7.783.164-.079,2.466-1.2,5.392-2.645l3.852,9.182.129.144a3.587,3.587,0,0,0,3.175,1.148c1.578-.3,2.881-1.812,3.875-4.495l2.744-9,.011-.082c.042-.261.351-2.583-1.235-3.719-1.19-.853-2.876-.69-5.152.5-1.88.983-4.113,2.113-6.228,3.169l-8.768-20.9-.023-.049a7.391,7.391,0,0,0-1.92-2.442h16.145a8.94,8.94,0,0,1,8.939,8.939" transform="translate(1467.217 -693.686)" fill="#fff"/>
  </g>
</svg>
